<svg width="230" height="206" viewBox="0 0 230 206" fill="none" xmlns="http://www.w3.org/2000/svg">
<path d="M229.464 99.5983C230.237 102.391 230.118 104.054 229.464 105.896C228.811 107.679 227.266 112.076 225.662 114.868C210.689 140.952 195.597 166.976 180.624 193.06C175.99 201.14 169.217 205.062 159.888 205.002C129.764 204.943 99.6405 204.943 69.5761 205.002C60.1289 205.002 53.3555 201.081 48.6616 192.941C33.6888 166.857 18.6566 140.774 3.56496 114.809C-1.18832 106.669 -1.18832 98.8259 3.56496 90.6859C18.5972 64.6617 33.6294 38.5781 48.6022 12.4945C53.2961 4.35454 60.1289 0.433089 69.5166 0.433089C99.5811 0.551921 129.586 0.551921 159.651 0.433089C169.157 0.373673 175.99 4.35454 180.743 12.6134C194.112 36.0232 207.659 59.3143 221.146 82.6647C224.236 88.131 228.692 96.8057 229.464 99.5983Z" fill="#0C0C0C"/>
</svg>
